<?xml version="1.0" encoding="utf-8" standalone="no"?>
<!DOCTYPE svg PUBLIC "-//W3C//DTD SVG 1.1//EN"
  "http://www.w3.org/Graphics/SVG/1.1/DTD/svg11.dtd">
<svg xmlns:xlink="http://www.w3.org/1999/xlink" width="460.8pt" height="345.6pt" viewBox="0 0 460.8 345.6" xmlns="http://www.w3.org/2000/svg" version="1.1">
 <metadata>
  <rdf:RDF xmlns:dc="http://purl.org/dc/elements/1.1/" xmlns:cc="http://creativecommons.org/ns#" xmlns:rdf="http://www.w3.org/1999/02/22-rdf-syntax-ns#">
   <cc:Work>
    <dc:type rdf:resource="http://purl.org/dc/dcmitype/StillImage"/>
    <dc:date>2025-02-19T19:12:25.817491</dc:date>
    <dc:format>image/svg+xml</dc:format>
    <dc:creator>
     <cc:Agent>
      <dc:title>Matplotlib v3.7.2, https://matplotlib.org/</dc:title>
     </cc:Agent>
    </dc:creator>
   </cc:Work>
  </rdf:RDF>
 </metadata>
 <defs>
  <style type="text/css">*{stroke-linejoin: round; stroke-linecap: butt}</style>
 </defs>
 <g id="figure_1">
  <g id="patch_1">
   <path d="M 0 345.6 
L 460.8 345.6 
L 460.8 0 
L 0 0 
z
" style="fill: #ffffff"/>
  </g>
  <g id="axes_1">
   <g id="patch_2">
    <path d="M 57.6 307.584 
L 414.72 307.584 
L 414.72 41.472 
L 57.6 41.472 
z
" style="fill: #ffffff"/>
   </g>
   <g id="matplotlib.axis_1">
    <g id="xtick_1">
     <g id="line2d_1">
      <path d="M 73.832727 307.584 
L 73.832727 41.472 
" clip-path="url(#pc77b1cafe8)" style="fill: none; stroke: #b0b0b0; stroke-width: 0.8; stroke-linecap: square"/>
     </g>
     <g id="line2d_2">
      <defs>
       <path id="ma8ef4e29a3" d="M 0 0 
L 0 3.5 
" style="stroke: #000000; stroke-width: 0.8"/>
      </defs>
      <g>
       <use xlink:href="#ma8ef4e29a3" x="73.832727" y="307.584" style="stroke: #000000; stroke-width: 0.8"/>
      </g>
     </g>
     <g id="text_1">
      <!-- −10.0 -->
      <g transform="translate(58.510071 322.182437) scale(0.1 -0.1)">
       <defs>
        <path id="DejaVuSans-2212" d="M 678 2272 
L 4684 2272 
L 4684 1741 
L 678 1741 
L 678 2272 
z
" transform="scale(0.015625)"/>
        <path id="DejaVuSans-31" d="M 794 531 
L 1825 531 
L 1825 4091 
L 703 3866 
L 703 4441 
L 1819 4666 
L 2450 4666 
L 2450 531 
L 3481 531 
L 3481 0 
L 794 0 
L 794 531 
z
" transform="scale(0.015625)"/>
        <path id="DejaVuSans-30" d="M 2034 4250 
Q 1547 4250 1301 3770 
Q 1056 3291 1056 2328 
Q 1056 1369 1301 889 
Q 1547 409 2034 409 
Q 2525 409 2770 889 
Q 3016 1369 3016 2328 
Q 3016 3291 2770 3770 
Q 2525 4250 2034 4250 
z
M 2034 4750 
Q 2819 4750 3233 4129 
Q 3647 3509 3647 2328 
Q 3647 1150 3233 529 
Q 2819 -91 2034 -91 
Q 1250 -91 836 529 
Q 422 1150 422 2328 
Q 422 3509 836 4129 
Q 1250 4750 2034 4750 
z
" transform="scale(0.015625)"/>
        <path id="DejaVuSans-2e" d="M 684 794 
L 1344 794 
L 1344 0 
L 684 0 
L 684 794 
z
" transform="scale(0.015625)"/>
       </defs>
       <use xlink:href="#DejaVuSans-2212"/>
       <use xlink:href="#DejaVuSans-31" x="83.789062"/>
       <use xlink:href="#DejaVuSans-30" x="147.412109"/>
       <use xlink:href="#DejaVuSans-2e" x="211.035156"/>
       <use xlink:href="#DejaVuSans-30" x="242.822266"/>
      </g>
     </g>
    </g>
    <g id="xtick_2">
     <g id="line2d_3">
      <path d="M 114.51651 307.584 
L 114.51651 41.472 
" clip-path="url(#pc77b1cafe8)" style="fill: none; stroke: #b0b0b0; stroke-width: 0.8; stroke-linecap: square"/>
     </g>
     <g id="line2d_4">
      <g>
       <use xlink:href="#ma8ef4e29a3" x="114.51651" y="307.584" style="stroke: #000000; stroke-width: 0.8"/>
      </g>
     </g>
     <g id="text_2">
      <!-- −7.5 -->
      <g transform="translate(102.375104 322.182437) scale(0.1 -0.1)">
       <defs>
        <path id="DejaVuSans-37" d="M 525 4666 
L 3525 4666 
L 3525 4397 
L 1831 0 
L 1172 0 
L 2766 4134 
L 525 4134 
L 525 4666 
z
" transform="scale(0.015625)"/>
        <path id="DejaVuSans-35" d="M 691 4666 
L 3169 4666 
L 3169 4134 
L 1269 4134 
L 1269 2991 
Q 1406 3038 1543 3061 
Q 1681 3084 1819 3084 
Q 2600 3084 3056 2656 
Q 3513 2228 3513 1497 
Q 3513 744 3044 326 
Q 2575 -91 1722 -91 
Q 1428 -91 1123 -41 
Q 819 9 494 109 
L 494 744 
Q 775 591 1075 516 
Q 1375 441 1709 441 
Q 2250 441 2565 725 
Q 2881 1009 2881 1497 
Q 2881 1984 2565 2268 
Q 2250 2553 1709 2553 
Q 1456 2553 1204 2497 
Q 953 2441 691 2322 
L 691 4666 
z
" transform="scale(0.015625)"/>
       </defs>
       <use xlink:href="#DejaVuSans-2212"/>
       <use xlink:href="#DejaVuSans-37" x="83.789062"/>
       <use xlink:href="#DejaVuSans-2e" x="147.412109"/>
       <use xlink:href="#DejaVuSans-35" x="179.199219"/>
      </g>
     </g>
    </g>
    <g id="xtick_3">
     <g id="line2d_5">
      <path d="M 155.200292 307.584 
L 155.200292 41.472 
" clip-path="url(#pc77b1cafe8)" style="fill: none; stroke: #b0b0b0; stroke-width: 0.8; stroke-linecap: square"/>
     </g>
     <g id="line2d_6">
      <g>
       <use xlink:href="#ma8ef4e29a3" x="155.200292" y="307.584" style="stroke: #000000; stroke-width: 0.8"/>
      </g>
     </g>
     <g id="text_3">
      <!-- −5.0 -->
      <g transform="translate(143.058886 322.182437) scale(0.1 -0.1)">
       <use xlink:href="#DejaVuSans-2212"/>
       <use xlink:href="#DejaVuSans-35" x="83.789062"/>
       <use xlink:href="#DejaVuSans-2e" x="147.412109"/>
       <use xlink:href="#DejaVuSans-30" x="179.199219"/>
      </g>
     </g>
    </g>
    <g id="xtick_4">
     <g id="line2d_7">
      <path d="M 195.884075 307.584 
L 195.884075 41.472 
" clip-path="url(#pc77b1cafe8)" style="fill: none; stroke: #b0b0b0; stroke-width: 0.8; stroke-linecap: square"/>
     </g>
     <g id="line2d_8">
      <g>
       <use xlink:href="#ma8ef4e29a3" x="195.884075" y="307.584" style="stroke: #000000; stroke-width: 0.8"/>
      </g>
     </g>
     <g id="text_4">
      <!-- −2.5 -->
      <g transform="translate(183.742669 322.182437) scale(0.1 -0.1)">
       <defs>
        <path id="DejaVuSans-32" d="M 1228 531 
L 3431 531 
L 3431 0 
L 469 0 
L 469 531 
Q 828 903 1448 1529 
Q 2069 2156 2228 2338 
Q 2531 2678 2651 2914 
Q 2772 3150 2772 3378 
Q 2772 3750 2511 3984 
Q 2250 4219 1831 4219 
Q 1534 4219 1204 4116 
Q 875 4013 500 3803 
L 500 4441 
Q 881 4594 1212 4672 
Q 1544 4750 1819 4750 
Q 2544 4750 2975 4387 
Q 3406 4025 3406 3419 
Q 3406 3131 3298 2873 
Q 3191 2616 2906 2266 
Q 2828 2175 2409 1742 
Q 1991 1309 1228 531 
z
" transform="scale(0.015625)"/>
       </defs>
       <use xlink:href="#DejaVuSans-2212"/>
       <use xlink:href="#DejaVuSans-32" x="83.789062"/>
       <use xlink:href="#DejaVuSans-2e" x="147.412109"/>
       <use xlink:href="#DejaVuSans-35" x="179.199219"/>
      </g>
     </g>
    </g>
    <g id="xtick_5">
     <g id="line2d_9">
      <path d="M 236.567857 307.584 
L 236.567857 41.472 
" clip-path="url(#pc77b1cafe8)" style="fill: none; stroke: #b0b0b0; stroke-width: 0.8; stroke-linecap: square"/>
     </g>
     <g id="line2d_10">
      <g>
       <use xlink:href="#ma8ef4e29a3" x="236.567857" y="307.584" style="stroke: #000000; stroke-width: 0.8"/>
      </g>
     </g>
     <g id="text_5">
      <!-- 0.0 -->
      <g transform="translate(228.616295 322.182437) scale(0.1 -0.1)">
       <use xlink:href="#DejaVuSans-30"/>
       <use xlink:href="#DejaVuSans-2e" x="63.623047"/>
       <use xlink:href="#DejaVuSans-30" x="95.410156"/>
      </g>
     </g>
    </g>
    <g id="xtick_6">
     <g id="line2d_11">
      <path d="M 277.25164 307.584 
L 277.25164 41.472 
" clip-path="url(#pc77b1cafe8)" style="fill: none; stroke: #b0b0b0; stroke-width: 0.8; stroke-linecap: square"/>
     </g>
     <g id="line2d_12">
      <g>
       <use xlink:href="#ma8ef4e29a3" x="277.25164" y="307.584" style="stroke: #000000; stroke-width: 0.8"/>
      </g>
     </g>
     <g id="text_6">
      <!-- 2.5 -->
      <g transform="translate(269.300078 322.182437) scale(0.1 -0.1)">
       <use xlink:href="#DejaVuSans-32"/>
       <use xlink:href="#DejaVuSans-2e" x="63.623047"/>
       <use xlink:href="#DejaVuSans-35" x="95.410156"/>
      </g>
     </g>
    </g>
    <g id="xtick_7">
     <g id="line2d_13">
      <path d="M 317.935423 307.584 
L 317.935423 41.472 
" clip-path="url(#pc77b1cafe8)" style="fill: none; stroke: #b0b0b0; stroke-width: 0.8; stroke-linecap: square"/>
     </g>
     <g id="line2d_14">
      <g>
       <use xlink:href="#ma8ef4e29a3" x="317.935423" y="307.584" style="stroke: #000000; stroke-width: 0.8"/>
      </g>
     </g>
     <g id="text_7">
      <!-- 5.0 -->
      <g transform="translate(309.98386 322.182437) scale(0.1 -0.1)">
       <use xlink:href="#DejaVuSans-35"/>
       <use xlink:href="#DejaVuSans-2e" x="63.623047"/>
       <use xlink:href="#DejaVuSans-30" x="95.410156"/>
      </g>
     </g>
    </g>
    <g id="xtick_8">
     <g id="line2d_15">
      <path d="M 358.619205 307.584 
L 358.619205 41.472 
" clip-path="url(#pc77b1cafe8)" style="fill: none; stroke: #b0b0b0; stroke-width: 0.8; stroke-linecap: square"/>
     </g>
     <g id="line2d_16">
      <g>
       <use xlink:href="#ma8ef4e29a3" x="358.619205" y="307.584" style="stroke: #000000; stroke-width: 0.8"/>
      </g>
     </g>
     <g id="text_8">
      <!-- 7.5 -->
      <g transform="translate(350.667643 322.182437) scale(0.1 -0.1)">
       <use xlink:href="#DejaVuSans-37"/>
       <use xlink:href="#DejaVuSans-2e" x="63.623047"/>
       <use xlink:href="#DejaVuSans-35" x="95.410156"/>
      </g>
     </g>
    </g>
    <g id="xtick_9">
     <g id="line2d_17">
      <path d="M 399.302988 307.584 
L 399.302988 41.472 
" clip-path="url(#pc77b1cafe8)" style="fill: none; stroke: #b0b0b0; stroke-width: 0.8; stroke-linecap: square"/>
     </g>
     <g id="line2d_18">
      <g>
       <use xlink:href="#ma8ef4e29a3" x="399.302988" y="307.584" style="stroke: #000000; stroke-width: 0.8"/>
      </g>
     </g>
     <g id="text_9">
      <!-- 10.0 -->
      <g transform="translate(388.170175 322.182437) scale(0.1 -0.1)">
       <use xlink:href="#DejaVuSans-31"/>
       <use xlink:href="#DejaVuSans-30" x="63.623047"/>
       <use xlink:href="#DejaVuSans-2e" x="127.246094"/>
       <use xlink:href="#DejaVuSans-30" x="159.033203"/>
      </g>
     </g>
    </g>
    <g id="text_10">
     <!-- x -->
     <g transform="translate(233.200625 335.860562) scale(0.1 -0.1)">
      <defs>
       <path id="DejaVuSans-78" d="M 3513 3500 
L 2247 1797 
L 3578 0 
L 2900 0 
L 1881 1375 
L 863 0 
L 184 0 
L 1544 1831 
L 300 3500 
L 978 3500 
L 1906 2253 
L 2834 3500 
L 3513 3500 
z
" transform="scale(0.015625)"/>
      </defs>
      <use xlink:href="#DejaVuSans-78"/>
     </g>
    </g>
   </g>
   <g id="matplotlib.axis_2">
    <g id="ytick_1">
     <g id="line2d_19">
      <path d="M 57.6 295.488 
L 414.72 295.488 
" clip-path="url(#pc77b1cafe8)" style="fill: none; stroke: #b0b0b0; stroke-width: 0.8; stroke-linecap: square"/>
     </g>
     <g id="line2d_20">
      <defs>
       <path id="m7a7eef10c7" d="M 0 0 
L -3.5 0 
" style="stroke: #000000; stroke-width: 0.8"/>
      </defs>
      <g>
       <use xlink:href="#m7a7eef10c7" x="57.6" y="295.488" style="stroke: #000000; stroke-width: 0.8"/>
      </g>
     </g>
     <g id="text_11">
      <!-- 0.00 -->
      <g transform="translate(28.334375 299.287219) scale(0.1 -0.1)">
       <use xlink:href="#DejaVuSans-30"/>
       <use xlink:href="#DejaVuSans-2e" x="63.623047"/>
       <use xlink:href="#DejaVuSans-30" x="95.410156"/>
       <use xlink:href="#DejaVuSans-30" x="159.033203"/>
      </g>
     </g>
    </g>
    <g id="ytick_2">
     <g id="line2d_21">
      <path d="M 57.6 265.248 
L 414.72 265.248 
" clip-path="url(#pc77b1cafe8)" style="fill: none; stroke: #b0b0b0; stroke-width: 0.8; stroke-linecap: square"/>
     </g>
     <g id="line2d_22">
      <g>
       <use xlink:href="#m7a7eef10c7" x="57.6" y="265.248" style="stroke: #000000; stroke-width: 0.8"/>
      </g>
     </g>
     <g id="text_12">
      <!-- 0.25 -->
      <g transform="translate(28.334375 269.047219) scale(0.1 -0.1)">
       <use xlink:href="#DejaVuSans-30"/>
       <use xlink:href="#DejaVuSans-2e" x="63.623047"/>
       <use xlink:href="#DejaVuSans-32" x="95.410156"/>
       <use xlink:href="#DejaVuSans-35" x="159.033203"/>
      </g>
     </g>
    </g>
    <g id="ytick_3">
     <g id="line2d_23">
      <path d="M 57.6 235.008 
L 414.72 235.008 
" clip-path="url(#pc77b1cafe8)" style="fill: none; stroke: #b0b0b0; stroke-width: 0.8; stroke-linecap: square"/>
     </g>
     <g id="line2d_24">
      <g>
       <use xlink:href="#m7a7eef10c7" x="57.6" y="235.008" style="stroke: #000000; stroke-width: 0.8"/>
      </g>
     </g>
     <g id="text_13">
      <!-- 0.50 -->
      <g transform="translate(28.334375 238.807219) scale(0.1 -0.1)">
       <use xlink:href="#DejaVuSans-30"/>
       <use xlink:href="#DejaVuSans-2e" x="63.623047"/>
       <use xlink:href="#DejaVuSans-35" x="95.410156"/>
       <use xlink:href="#DejaVuSans-30" x="159.033203"/>
      </g>
     </g>
    </g>
    <g id="ytick_4">
     <g id="line2d_25">
      <path d="M 57.6 204.768 
L 414.72 204.768 
" clip-path="url(#pc77b1cafe8)" style="fill: none; stroke: #b0b0b0; stroke-width: 0.8; stroke-linecap: square"/>
     </g>
     <g id="line2d_26">
      <g>
       <use xlink:href="#m7a7eef10c7" x="57.6" y="204.768" style="stroke: #000000; stroke-width: 0.8"/>
      </g>
     </g>
     <g id="text_14">
      <!-- 0.75 -->
      <g transform="translate(28.334375 208.567219) scale(0.1 -0.1)">
       <use xlink:href="#DejaVuSans-30"/>
       <use xlink:href="#DejaVuSans-2e" x="63.623047"/>
       <use xlink:href="#DejaVuSans-37" x="95.410156"/>
       <use xlink:href="#DejaVuSans-35" x="159.033203"/>
      </g>
     </g>
    </g>
    <g id="ytick_5">
     <g id="line2d_27">
      <path d="M 57.6 174.528 
L 414.72 174.528 
" clip-path="url(#pc77b1cafe8)" style="fill: none; stroke: #b0b0b0; stroke-width: 0.8; stroke-linecap: square"/>
     </g>
     <g id="line2d_28">
      <g>
       <use xlink:href="#m7a7eef10c7" x="57.6" y="174.528" style="stroke: #000000; stroke-width: 0.8"/>
      </g>
     </g>
     <g id="text_15">
      <!-- 1.00 -->
      <g transform="translate(28.334375 178.327219) scale(0.1 -0.1)">
       <use xlink:href="#DejaVuSans-31"/>
       <use xlink:href="#DejaVuSans-2e" x="63.623047"/>
       <use xlink:href="#DejaVuSans-30" x="95.410156"/>
       <use xlink:href="#DejaVuSans-30" x="159.033203"/>
      </g>
     </g>
    </g>
    <g id="ytick_6">
     <g id="line2d_29">
      <path d="M 57.6 144.288001 
L 414.72 144.288001 
" clip-path="url(#pc77b1cafe8)" style="fill: none; stroke: #b0b0b0; stroke-width: 0.8; stroke-linecap: square"/>
     </g>
     <g id="line2d_30">
      <g>
       <use xlink:href="#m7a7eef10c7" x="57.6" y="144.288001" style="stroke: #000000; stroke-width: 0.8"/>
      </g>
     </g>
     <g id="text_16">
      <!-- 1.25 -->
      <g transform="translate(28.334375 148.087219) scale(0.1 -0.1)">
       <use xlink:href="#DejaVuSans-31"/>
       <use xlink:href="#DejaVuSans-2e" x="63.623047"/>
       <use xlink:href="#DejaVuSans-32" x="95.410156"/>
       <use xlink:href="#DejaVuSans-35" x="159.033203"/>
      </g>
     </g>
    </g>
    <g id="ytick_7">
     <g id="line2d_31">
      <path d="M 57.6 114.048001 
L 414.72 114.048001 
" clip-path="url(#pc77b1cafe8)" style="fill: none; stroke: #b0b0b0; stroke-width: 0.8; stroke-linecap: square"/>
     </g>
     <g id="line2d_32">
      <g>
       <use xlink:href="#m7a7eef10c7" x="57.6" y="114.048001" style="stroke: #000000; stroke-width: 0.8"/>
      </g>
     </g>
     <g id="text_17">
      <!-- 1.50 -->
      <g transform="translate(28.334375 117.847219) scale(0.1 -0.1)">
       <use xlink:href="#DejaVuSans-31"/>
       <use xlink:href="#DejaVuSans-2e" x="63.623047"/>
       <use xlink:href="#DejaVuSans-35" x="95.410156"/>
       <use xlink:href="#DejaVuSans-30" x="159.033203"/>
      </g>
     </g>
    </g>
    <g id="ytick_8">
     <g id="line2d_33">
      <path d="M 57.6 83.808001 
L 414.72 83.808001 
" clip-path="url(#pc77b1cafe8)" style="fill: none; stroke: #b0b0b0; stroke-width: 0.8; stroke-linecap: square"/>
     </g>
     <g id="line2d_34">
      <g>
       <use xlink:href="#m7a7eef10c7" x="57.6" y="83.808001" style="stroke: #000000; stroke-width: 0.8"/>
      </g>
     </g>
     <g id="text_18">
      <!-- 1.75 -->
      <g transform="translate(28.334375 87.60722) scale(0.1 -0.1)">
       <use xlink:href="#DejaVuSans-31"/>
       <use xlink:href="#DejaVuSans-2e" x="63.623047"/>
       <use xlink:href="#DejaVuSans-37" x="95.410156"/>
       <use xlink:href="#DejaVuSans-35" x="159.033203"/>
      </g>
     </g>
    </g>
    <g id="ytick_9">
     <g id="line2d_35">
      <path d="M 57.6 53.568001 
L 414.72 53.568001 
" clip-path="url(#pc77b1cafe8)" style="fill: none; stroke: #b0b0b0; stroke-width: 0.8; stroke-linecap: square"/>
     </g>
     <g id="line2d_36">
      <g>
       <use xlink:href="#m7a7eef10c7" x="57.6" y="53.568001" style="stroke: #000000; stroke-width: 0.8"/>
      </g>
     </g>
     <g id="text_19">
      <!-- 2.00 -->
      <g transform="translate(28.334375 57.36722) scale(0.1 -0.1)">
       <use xlink:href="#DejaVuSans-32"/>
       <use xlink:href="#DejaVuSans-2e" x="63.623047"/>
       <use xlink:href="#DejaVuSans-30" x="95.410156"/>
       <use xlink:href="#DejaVuSans-30" x="159.033203"/>
      </g>
     </g>
    </g>
   </g>
   <g id="line2d_37">
    <path d="M 73.832727 295.486814 
L 148.062787 295.374482 
L 166.008515 295.146031 
L 177.428524 294.798154 
L 185.585674 294.349225 
L 192.111393 293.78749 
L 197.821398 293.072865 
L 202.715688 292.225725 
L 206.794262 291.297027 
L 210.057122 290.367326 
L 213.319982 289.231842 
L 216.582841 287.845404 
L 219.029986 286.608344 
L 221.477131 285.172315 
L 223.924276 283.506035 
L 226.371421 281.573715 
L 228.818566 279.33464 
L 231.26571 276.742872 
L 233.712855 273.747158 
L 236.16 270.291235 
L 238.607145 266.3148 
L 241.05429 261.755528 
L 243.501434 256.55271 
L 245.948579 250.65326 
L 248.395724 244.021031 
L 250.842869 236.650416 
L 253.290014 228.584912 
L 256.552873 216.963793 
L 263.078593 193.273004 
L 264.710023 188.044117 
L 266.341453 183.43923 
L 267.972883 179.639405 
L 268.788598 178.093696 
L 269.604312 176.808466 
L 270.420027 175.798901 
L 271.235742 175.077209 
L 272.051457 174.652272 
L 272.867172 174.52938 
L 273.682887 174.710071 
L 274.498602 175.192084 
L 275.314317 175.96943 
L 276.130032 177.03257 
L 276.945747 178.368697 
L 278.577177 181.794624 
L 280.208607 186.09489 
L 281.840037 191.093504 
L 284.287181 199.499427 
L 293.260046 231.863455 
L 295.70719 239.662455 
L 298.154335 246.74203 
L 300.60148 253.080715 
L 303.048625 258.698176 
L 305.49577 263.638651 
L 307.942915 267.959157 
L 310.390059 271.721614 
L 312.837204 274.987876 
L 315.284349 277.816813 
L 317.731494 280.262771 
L 320.178639 282.374905 
L 322.625783 284.197055 
L 325.072928 285.767935 
L 327.520073 287.121493 
L 330.782933 288.638807 
L 334.045793 289.881679 
L 337.308652 290.899418 
L 341.387227 291.916141 
L 345.465802 292.707737 
L 350.360091 293.429755 
L 356.070096 294.038798 
L 363.41153 294.56497 
L 372.384395 294.956186 
L 384.620119 295.23726 
L 398.487273 295.381058 
L 398.487273 295.381058 
" clip-path="url(#pc77b1cafe8)" style="fill: none; stroke: #800080; stroke-width: 1.5; stroke-linecap: square"/>
   </g>
   <g id="line2d_38">
    <path d="M 73.832727 295.488 
L 398.487273 295.488 
L 398.487273 295.488 
" clip-path="url(#pc77b1cafe8)" style="fill: none; stroke-dasharray: 5.55,2.4; stroke-dashoffset: 0; stroke: #ffa500; stroke-width: 1.5"/>
   </g>
   <g id="line2d_39">
    <path d="M 73.832727 295.48746 
L 176.61281 295.386699 
L 192.927108 295.147516 
L 202.715688 294.806683 
L 210.057122 294.338381 
L 214.951412 293.834625 
L 219.029986 293.209121 
L 222.292846 292.492485 
L 224.739991 291.767901 
L 227.187136 290.819819 
L 229.63428 289.572117 
L 231.26571 288.52715 
L 232.89714 287.272954 
L 234.52857 285.771929 
L 236.16 283.982984 
L 237.79143 281.862168 
L 239.42286 279.363466 
L 241.05429 276.439708 
L 242.68572 273.043557 
L 244.317149 269.128585 
L 245.948579 264.650525 
L 247.580009 259.56885 
L 249.211439 253.848948 
L 250.842869 247.465224 
L 252.474299 240.405512 
L 254.921444 228.571902 
L 257.368588 215.392473 
L 261.447163 191.583242 
L 263.894308 177.488341 
L 265.525738 168.895358 
L 267.157168 161.440128 
L 268.788598 155.552021 
L 269.604312 153.317093 
L 270.420027 151.608157 
L 271.235742 150.45499 
L 272.051457 149.877613 
L 272.867172 149.885379 
L 273.682887 150.476532 
L 274.498602 151.638281 
L 275.314317 153.347384 
L 276.130032 155.571186 
L 276.945747 158.269032 
L 278.577177 164.894431 
L 280.208607 172.80452 
L 282.655751 186.133068 
L 288.365756 217.928533 
L 290.812901 230.053327 
L 293.260046 240.800978 
L 294.891476 247.171881 
L 296.522905 252.92279 
L 298.154335 258.083575 
L 299.785765 262.692512 
L 301.417195 266.792172 
L 303.048625 270.42655 
L 304.680055 273.639146 
L 306.311485 276.47174 
L 307.942915 278.963662 
L 309.574344 281.151402 
L 311.205774 283.06846 
L 312.837204 284.745338 
L 315.284349 286.869942 
L 317.731494 288.597353 
L 320.178639 289.996839 
L 322.625783 291.126695 
L 325.072928 292.035703 
L 328.335788 292.973379 
L 331.598648 293.667495 
L 335.677222 294.282755 
L 340.571512 294.76267 
L 346.281517 295.094092 
L 354.438666 295.32889 
L 367.490105 295.45377 
L 398.487273 295.488 
L 398.487273 295.488 
" clip-path="url(#pc77b1cafe8)" style="fill: none; stroke: #0000ff; stroke-width: 1.5; stroke-linecap: square"/>
   </g>
   <g id="line2d_40">
    <path d="M 73.832727 295.488 
L 398.487273 295.488 
L 398.487273 295.488 
" clip-path="url(#pc77b1cafe8)" style="fill: none; stroke-dasharray: 5.55,2.4; stroke-dashoffset: 0; stroke: #ff0000; stroke-width: 1.5"/>
   </g>
   <g id="line2d_41">
    <path d="M 73.832727 53.568 
L 80.358447 72.581089 
L 86.068451 88.579314 
L 91.778456 103.981858 
L 97.48846 118.788719 
L 103.198465 132.999891 
L 108.90847 146.615366 
L 114.618474 159.635124 
L 120.328479 172.059127 
L 126.038483 183.887296 
L 130.932773 193.551375 
L 135.827063 202.777398 
L 140.721352 211.565022 
L 145.615642 219.913623 
L 150.509931 227.822061 
L 155.404221 235.288257 
L 160.298511 242.308416 
L 164.377085 247.812981 
L 168.45566 252.996241 
L 172.534235 257.846902 
L 176.61281 262.346361 
L 180.691384 266.464011 
L 183.954244 269.450407 
L 187.217104 272.121247 
L 189.664249 273.882999 
L 192.111393 275.400517 
L 194.558538 276.628133 
L 196.189968 277.256404 
L 197.821398 277.707048 
L 199.452828 277.953413 
L 201.084258 277.963871 
L 202.715688 277.701156 
L 204.347117 277.121746 
L 205.978547 276.175373 
L 207.609977 274.804819 
L 209.241407 272.946167 
L 210.872837 270.529798 
L 212.504267 267.48249 
L 214.135697 263.731051 
L 215.767127 259.207999 
L 217.398556 253.859767 
L 219.029986 247.657767 
L 220.661416 240.612272 
L 223.108561 228.62399 
L 226.371421 210.928775 
L 228.818566 197.737808 
L 230.449995 189.790852 
L 232.081425 183.091105 
L 232.89714 180.356359 
L 233.712855 178.101451 
L 234.52857 176.369786 
L 235.344285 175.19557 
L 236.16 174.602429 
L 236.975715 174.602429 
L 237.79143 175.19557 
L 238.607145 176.369786 
L 239.42286 178.101451 
L 240.238575 180.356359 
L 241.05429 183.091105 
L 242.68572 189.790852 
L 244.317149 197.737808 
L 247.580009 215.435733 
L 250.842869 232.788404 
L 252.474299 240.612272 
L 254.105729 247.657767 
L 255.737159 253.859767 
L 257.368588 259.207999 
L 259.000018 263.731051 
L 260.631448 267.48249 
L 262.262878 270.529798 
L 263.894308 272.946167 
L 265.525738 274.804819 
L 267.157168 276.175373 
L 268.788598 277.121746 
L 270.420027 277.701156 
L 272.051457 277.963871 
L 273.682887 277.953413 
L 275.314317 277.707048 
L 276.945747 277.256404 
L 278.577177 276.628133 
L 281.024322 275.400517 
L 283.471466 273.882999 
L 285.918611 272.121247 
L 289.181471 269.450407 
L 292.444331 266.464011 
L 295.70719 263.2017 
L 299.785765 258.775659 
L 303.86434 253.993448 
L 307.942915 248.87562 
L 312.021489 243.434657 
L 316.915779 236.489396 
L 321.810069 229.097214 
L 326.704358 221.262304 
L 331.598648 212.986966 
L 336.492937 204.272459 
L 341.387227 195.119473 
L 346.281517 185.528387 
L 351.175806 175.499408 
L 356.885811 163.245633 
L 362.595815 150.396086 
L 368.30582 136.950813 
L 374.015825 122.909838 
L 379.725829 108.273174 
L 385.435834 93.040825 
L 391.145838 77.212794 
L 396.855843 60.789084 
L 398.487273 55.987185 
L 398.487273 55.987185 
" clip-path="url(#pc77b1cafe8)" style="fill: none; stroke-dasharray: 5.55,2.4; stroke-dashoffset: 0; stroke: #008000; stroke-width: 1.5"/>
   </g>
   <g id="patch_3">
    <path d="M 57.6 307.584 
L 57.6 41.472 
" style="fill: none; stroke: #000000; stroke-width: 0.8; stroke-linejoin: miter; stroke-linecap: square"/>
   </g>
   <g id="patch_4">
    <path d="M 414.72 307.584 
L 414.72 41.472 
" style="fill: none; stroke: #000000; stroke-width: 0.8; stroke-linejoin: miter; stroke-linecap: square"/>
   </g>
   <g id="patch_5">
    <path d="M 57.6 307.584 
L 414.72 307.584 
" style="fill: none; stroke: #000000; stroke-width: 0.8; stroke-linejoin: miter; stroke-linecap: square"/>
   </g>
   <g id="patch_6">
    <path d="M 57.6 41.472 
L 414.72 41.472 
" style="fill: none; stroke: #000000; stroke-width: 0.8; stroke-linejoin: miter; stroke-linecap: square"/>
   </g>
   <g id="text_20">
    <!-- $V(x)$, $u_{\mathrm{real}}(x,0)$ and $u_{\mathrm{imag}}(x,0)$ -->
    <g transform="translate(148.14 35.472) scale(0.12 -0.12)">
     <defs>
      <path id="DejaVuSans-Oblique-56" d="M 1319 0 
L 500 4666 
L 1119 4666 
L 1797 653 
L 4063 4666 
L 4750 4666 
L 2053 0 
L 1319 0 
z
" transform="scale(0.015625)"/>
      <path id="DejaVuSans-28" d="M 1984 4856 
Q 1566 4138 1362 3434 
Q 1159 2731 1159 2009 
Q 1159 1288 1364 580 
Q 1569 -128 1984 -844 
L 1484 -844 
Q 1016 -109 783 600 
Q 550 1309 550 2009 
Q 550 2706 781 3412 
Q 1013 4119 1484 4856 
L 1984 4856 
z
" transform="scale(0.015625)"/>
      <path id="DejaVuSans-Oblique-78" d="M 3841 3500 
L 2234 1784 
L 3219 0 
L 2559 0 
L 1819 1388 
L 531 0 
L -166 0 
L 1556 1844 
L 641 3500 
L 1300 3500 
L 1972 2234 
L 3144 3500 
L 3841 3500 
z
" transform="scale(0.015625)"/>
      <path id="DejaVuSans-29" d="M 513 4856 
L 1013 4856 
Q 1481 4119 1714 3412 
Q 1947 2706 1947 2009 
Q 1947 1309 1714 600 
Q 1481 -109 1013 -844 
L 513 -844 
Q 928 -128 1133 580 
Q 1338 1288 1338 2009 
Q 1338 2731 1133 3434 
Q 928 4138 513 4856 
z
" transform="scale(0.015625)"/>
      <path id="DejaVuSans-2c" d="M 750 794 
L 1409 794 
L 1409 256 
L 897 -744 
L 494 -744 
L 750 256 
L 750 794 
z
" transform="scale(0.015625)"/>
      <path id="DejaVuSans-20" transform="scale(0.015625)"/>
      <path id="DejaVuSans-Oblique-75" d="M 428 1388 
L 838 3500 
L 1416 3500 
L 1006 1409 
Q 975 1256 961 1147 
Q 947 1038 947 966 
Q 947 700 1109 554 
Q 1272 409 1569 409 
Q 2031 409 2368 721 
Q 2706 1034 2809 1563 
L 3194 3500 
L 3769 3500 
L 3091 0 
L 2516 0 
L 2631 550 
Q 2388 244 2052 76 
Q 1716 -91 1338 -91 
Q 878 -91 622 161 
Q 366 413 366 863 
Q 366 956 381 1097 
Q 397 1238 428 1388 
z
" transform="scale(0.015625)"/>
      <path id="DejaVuSans-72" d="M 2631 2963 
Q 2534 3019 2420 3045 
Q 2306 3072 2169 3072 
Q 1681 3072 1420 2755 
Q 1159 2438 1159 1844 
L 1159 0 
L 581 0 
L 581 3500 
L 1159 3500 
L 1159 2956 
Q 1341 3275 1631 3429 
Q 1922 3584 2338 3584 
Q 2397 3584 2469 3576 
Q 2541 3569 2628 3553 
L 2631 2963 
z
" transform="scale(0.015625)"/>
      <path id="DejaVuSans-65" d="M 3597 1894 
L 3597 1613 
L 953 1613 
Q 991 1019 1311 708 
Q 1631 397 2203 397 
Q 2534 397 2845 478 
Q 3156 559 3463 722 
L 3463 178 
Q 3153 47 2828 -22 
Q 2503 -91 2169 -91 
Q 1331 -91 842 396 
Q 353 884 353 1716 
Q 353 2575 817 3079 
Q 1281 3584 2069 3584 
Q 2775 3584 3186 3129 
Q 3597 2675 3597 1894 
z
M 3022 2063 
Q 3016 2534 2758 2815 
Q 2500 3097 2075 3097 
Q 1594 3097 1305 2825 
Q 1016 2553 972 2059 
L 3022 2063 
z
" transform="scale(0.015625)"/>
      <path id="DejaVuSans-61" d="M 2194 1759 
Q 1497 1759 1228 1600 
Q 959 1441 959 1056 
Q 959 750 1161 570 
Q 1363 391 1709 391 
Q 2188 391 2477 730 
Q 2766 1069 2766 1631 
L 2766 1759 
L 2194 1759 
z
M 3341 1997 
L 3341 0 
L 2766 0 
L 2766 531 
Q 2569 213 2275 61 
Q 1981 -91 1556 -91 
Q 1019 -91 701 211 
Q 384 513 384 1019 
Q 384 1609 779 1909 
Q 1175 2209 1959 2209 
L 2766 2209 
L 2766 2266 
Q 2766 2663 2505 2880 
Q 2244 3097 1772 3097 
Q 1472 3097 1187 3025 
Q 903 2953 641 2809 
L 641 3341 
Q 956 3463 1253 3523 
Q 1550 3584 1831 3584 
Q 2591 3584 2966 3190 
Q 3341 2797 3341 1997 
z
" transform="scale(0.015625)"/>
      <path id="DejaVuSans-6c" d="M 603 4863 
L 1178 4863 
L 1178 0 
L 603 0 
L 603 4863 
z
" transform="scale(0.015625)"/>
      <path id="DejaVuSans-6e" d="M 3513 2113 
L 3513 0 
L 2938 0 
L 2938 2094 
Q 2938 2591 2744 2837 
Q 2550 3084 2163 3084 
Q 1697 3084 1428 2787 
Q 1159 2491 1159 1978 
L 1159 0 
L 581 0 
L 581 3500 
L 1159 3500 
L 1159 2956 
Q 1366 3272 1645 3428 
Q 1925 3584 2291 3584 
Q 2894 3584 3203 3211 
Q 3513 2838 3513 2113 
z
" transform="scale(0.015625)"/>
      <path id="DejaVuSans-64" d="M 2906 2969 
L 2906 4863 
L 3481 4863 
L 3481 0 
L 2906 0 
L 2906 525 
Q 2725 213 2448 61 
Q 2172 -91 1784 -91 
Q 1150 -91 751 415 
Q 353 922 353 1747 
Q 353 2572 751 3078 
Q 1150 3584 1784 3584 
Q 2172 3584 2448 3432 
Q 2725 3281 2906 2969 
z
M 947 1747 
Q 947 1113 1208 752 
Q 1469 391 1925 391 
Q 2381 391 2643 752 
Q 2906 1113 2906 1747 
Q 2906 2381 2643 2742 
Q 2381 3103 1925 3103 
Q 1469 3103 1208 2742 
Q 947 2381 947 1747 
z
" transform="scale(0.015625)"/>
      <path id="DejaVuSans-69" d="M 603 3500 
L 1178 3500 
L 1178 0 
L 603 0 
L 603 3500 
z
M 603 4863 
L 1178 4863 
L 1178 4134 
L 603 4134 
L 603 4863 
z
" transform="scale(0.015625)"/>
      <path id="DejaVuSans-6d" d="M 3328 2828 
Q 3544 3216 3844 3400 
Q 4144 3584 4550 3584 
Q 5097 3584 5394 3201 
Q 5691 2819 5691 2113 
L 5691 0 
L 5113 0 
L 5113 2094 
Q 5113 2597 4934 2840 
Q 4756 3084 4391 3084 
Q 3944 3084 3684 2787 
Q 3425 2491 3425 1978 
L 3425 0 
L 2847 0 
L 2847 2094 
Q 2847 2600 2669 2842 
Q 2491 3084 2119 3084 
Q 1678 3084 1418 2786 
Q 1159 2488 1159 1978 
L 1159 0 
L 581 0 
L 581 3500 
L 1159 3500 
L 1159 2956 
Q 1356 3278 1631 3431 
Q 1906 3584 2284 3584 
Q 2666 3584 2933 3390 
Q 3200 3197 3328 2828 
z
" transform="scale(0.015625)"/>
      <path id="DejaVuSans-67" d="M 2906 1791 
Q 2906 2416 2648 2759 
Q 2391 3103 1925 3103 
Q 1463 3103 1205 2759 
Q 947 2416 947 1791 
Q 947 1169 1205 825 
Q 1463 481 1925 481 
Q 2391 481 2648 825 
Q 2906 1169 2906 1791 
z
M 3481 434 
Q 3481 -459 3084 -895 
Q 2688 -1331 1869 -1331 
Q 1566 -1331 1297 -1286 
Q 1028 -1241 775 -1147 
L 775 -588 
Q 1028 -725 1275 -790 
Q 1522 -856 1778 -856 
Q 2344 -856 2625 -561 
Q 2906 -266 2906 331 
L 2906 616 
Q 2728 306 2450 153 
Q 2172 0 1784 0 
Q 1141 0 747 490 
Q 353 981 353 1791 
Q 353 2603 747 3093 
Q 1141 3584 1784 3584 
Q 2172 3584 2450 3431 
Q 2728 3278 2906 2969 
L 2906 3500 
L 3481 3500 
L 3481 434 
z
" transform="scale(0.015625)"/>
     </defs>
     <use xlink:href="#DejaVuSans-Oblique-56" transform="translate(0 0.015625)"/>
     <use xlink:href="#DejaVuSans-28" transform="translate(68.408203 0.015625)"/>
     <use xlink:href="#DejaVuSans-Oblique-78" transform="translate(107.421875 0.015625)"/>
     <use xlink:href="#DejaVuSans-29" transform="translate(166.601562 0.015625)"/>
     <use xlink:href="#DejaVuSans-2c" transform="translate(205.615234 0.015625)"/>
     <use xlink:href="#DejaVuSans-20" transform="translate(237.402344 0.015625)"/>
     <use xlink:href="#DejaVuSans-Oblique-75" transform="translate(269.189453 0.015625)"/>
     <use xlink:href="#DejaVuSans-72" transform="translate(332.568359 -16.390625) scale(0.7)"/>
     <use xlink:href="#DejaVuSans-65" transform="translate(361.347656 -16.390625) scale(0.7)"/>
     <use xlink:href="#DejaVuSans-61" transform="translate(404.414062 -16.390625) scale(0.7)"/>
     <use xlink:href="#DejaVuSans-6c" transform="translate(447.30957 -16.390625) scale(0.7)"/>
     <use xlink:href="#DejaVuSans-28" transform="translate(469.492188 0.015625)"/>
     <use xlink:href="#DejaVuSans-Oblique-78" transform="translate(508.505859 0.015625)"/>
     <use xlink:href="#DejaVuSans-2c" transform="translate(567.685547 0.015625)"/>
     <use xlink:href="#DejaVuSans-30" transform="translate(618.955078 0.015625)"/>
     <use xlink:href="#DejaVuSans-29" transform="translate(682.578125 0.015625)"/>
     <use xlink:href="#DejaVuSans-20" transform="translate(721.591797 0.015625)"/>
     <use xlink:href="#DejaVuSans-61" transform="translate(753.378906 0.015625)"/>
     <use xlink:href="#DejaVuSans-6e" transform="translate(814.658203 0.015625)"/>
     <use xlink:href="#DejaVuSans-64" transform="translate(878.037109 0.015625)"/>
     <use xlink:href="#DejaVuSans-20" transform="translate(941.513672 0.015625)"/>
     <use xlink:href="#DejaVuSans-Oblique-75" transform="translate(973.300781 0.015625)"/>
     <use xlink:href="#DejaVuSans-69" transform="translate(1036.679688 -16.390625) scale(0.7)"/>
     <use xlink:href="#DejaVuSans-6d" transform="translate(1056.12793 -16.390625) scale(0.7)"/>
     <use xlink:href="#DejaVuSans-61" transform="translate(1124.316406 -16.390625) scale(0.7)"/>
     <use xlink:href="#DejaVuSans-67" transform="translate(1167.211914 -16.390625) scale(0.7)"/>
     <use xlink:href="#DejaVuSans-28" transform="translate(1214.379883 0.015625)"/>
     <use xlink:href="#DejaVuSans-Oblique-78" transform="translate(1253.393555 0.015625)"/>
     <use xlink:href="#DejaVuSans-2c" transform="translate(1312.573242 0.015625)"/>
     <use xlink:href="#DejaVuSans-30" transform="translate(1363.842773 0.015625)"/>
     <use xlink:href="#DejaVuSans-29" transform="translate(1427.46582 0.015625)"/>
    </g>
   </g>
   <g id="legend_1">
    <g id="patch_7">
     <path d="M 157.01 124.906375 
L 315.31 124.906375 
Q 317.31 124.906375 317.31 122.906375 
L 317.31 48.472 
Q 317.31 46.472 315.31 46.472 
L 157.01 46.472 
Q 155.01 46.472 155.01 48.472 
L 155.01 122.906375 
Q 155.01 124.906375 157.01 124.906375 
z
" style="fill: #ffffff; opacity: 0.8; stroke: #cccccc; stroke-linejoin: miter"/>
    </g>
    <g id="line2d_42">
     <path d="M 159.01 54.570438 
L 169.01 54.570438 
L 179.01 54.570438 
" style="fill: none; stroke: #800080; stroke-width: 1.5; stroke-linecap: square"/>
    </g>
    <g id="text_21">
     <!-- $u_{\mathrm{real}}(x,0)$ before Newton -->
     <g transform="translate(187.01 58.070438) scale(0.1 -0.1)">
      <defs>
       <path id="DejaVuSans-62" d="M 3116 1747 
Q 3116 2381 2855 2742 
Q 2594 3103 2138 3103 
Q 1681 3103 1420 2742 
Q 1159 2381 1159 1747 
Q 1159 1113 1420 752 
Q 1681 391 2138 391 
Q 2594 391 2855 752 
Q 3116 1113 3116 1747 
z
M 1159 2969 
Q 1341 3281 1617 3432 
Q 1894 3584 2278 3584 
Q 2916 3584 3314 3078 
Q 3713 2572 3713 1747 
Q 3713 922 3314 415 
Q 2916 -91 2278 -91 
Q 1894 -91 1617 61 
Q 1341 213 1159 525 
L 1159 0 
L 581 0 
L 581 4863 
L 1159 4863 
L 1159 2969 
z
" transform="scale(0.015625)"/>
       <path id="DejaVuSans-66" d="M 2375 4863 
L 2375 4384 
L 1825 4384 
Q 1516 4384 1395 4259 
Q 1275 4134 1275 3809 
L 1275 3500 
L 2222 3500 
L 2222 3053 
L 1275 3053 
L 1275 0 
L 697 0 
L 697 3053 
L 147 3053 
L 147 3500 
L 697 3500 
L 697 3744 
Q 697 4328 969 4595 
Q 1241 4863 1831 4863 
L 2375 4863 
z
" transform="scale(0.015625)"/>
       <path id="DejaVuSans-6f" d="M 1959 3097 
Q 1497 3097 1228 2736 
Q 959 2375 959 1747 
Q 959 1119 1226 758 
Q 1494 397 1959 397 
Q 2419 397 2687 759 
Q 2956 1122 2956 1747 
Q 2956 2369 2687 2733 
Q 2419 3097 1959 3097 
z
M 1959 3584 
Q 2709 3584 3137 3096 
Q 3566 2609 3566 1747 
Q 3566 888 3137 398 
Q 2709 -91 1959 -91 
Q 1206 -91 779 398 
Q 353 888 353 1747 
Q 353 2609 779 3096 
Q 1206 3584 1959 3584 
z
" transform="scale(0.015625)"/>
       <path id="DejaVuSans-4e" d="M 628 4666 
L 1478 4666 
L 3547 763 
L 3547 4666 
L 4159 4666 
L 4159 0 
L 3309 0 
L 1241 3903 
L 1241 0 
L 628 0 
L 628 4666 
z
" transform="scale(0.015625)"/>
       <path id="DejaVuSans-77" d="M 269 3500 
L 844 3500 
L 1563 769 
L 2278 3500 
L 2956 3500 
L 3675 769 
L 4391 3500 
L 4966 3500 
L 4050 0 
L 3372 0 
L 2619 2869 
L 1863 0 
L 1184 0 
L 269 3500 
z
" transform="scale(0.015625)"/>
       <path id="DejaVuSans-74" d="M 1172 4494 
L 1172 3500 
L 2356 3500 
L 2356 3053 
L 1172 3053 
L 1172 1153 
Q 1172 725 1289 603 
Q 1406 481 1766 481 
L 2356 481 
L 2356 0 
L 1766 0 
Q 1100 0 847 248 
Q 594 497 594 1153 
L 594 3053 
L 172 3053 
L 172 3500 
L 594 3500 
L 594 4494 
L 1172 4494 
z
" transform="scale(0.015625)"/>
      </defs>
      <use xlink:href="#DejaVuSans-Oblique-75" transform="translate(0 0.015625)"/>
      <use xlink:href="#DejaVuSans-72" transform="translate(63.378906 -16.390625) scale(0.7)"/>
      <use xlink:href="#DejaVuSans-65" transform="translate(92.158203 -16.390625) scale(0.7)"/>
      <use xlink:href="#DejaVuSans-61" transform="translate(135.224609 -16.390625) scale(0.7)"/>
      <use xlink:href="#DejaVuSans-6c" transform="translate(178.120117 -16.390625) scale(0.7)"/>
      <use xlink:href="#DejaVuSans-28" transform="translate(200.302734 0.015625)"/>
      <use xlink:href="#DejaVuSans-Oblique-78" transform="translate(239.316406 0.015625)"/>
      <use xlink:href="#DejaVuSans-2c" transform="translate(298.496094 0.015625)"/>
      <use xlink:href="#DejaVuSans-30" transform="translate(349.765625 0.015625)"/>
      <use xlink:href="#DejaVuSans-29" transform="translate(413.388672 0.015625)"/>
      <use xlink:href="#DejaVuSans-20" transform="translate(452.402344 0.015625)"/>
      <use xlink:href="#DejaVuSans-62" transform="translate(484.189453 0.015625)"/>
      <use xlink:href="#DejaVuSans-65" transform="translate(547.666016 0.015625)"/>
      <use xlink:href="#DejaVuSans-66" transform="translate(609.189453 0.015625)"/>
      <use xlink:href="#DejaVuSans-6f" transform="translate(644.394531 0.015625)"/>
      <use xlink:href="#DejaVuSans-72" transform="translate(705.576172 0.015625)"/>
      <use xlink:href="#DejaVuSans-65" transform="translate(746.689453 0.015625)"/>
      <use xlink:href="#DejaVuSans-20" transform="translate(808.212891 0.015625)"/>
      <use xlink:href="#DejaVuSans-4e" transform="translate(840 0.015625)"/>
      <use xlink:href="#DejaVuSans-65" transform="translate(914.804688 0.015625)"/>
      <use xlink:href="#DejaVuSans-77" transform="translate(976.328125 0.015625)"/>
      <use xlink:href="#DejaVuSans-74" transform="translate(1058.115234 0.015625)"/>
      <use xlink:href="#DejaVuSans-6f" transform="translate(1097.324219 0.015625)"/>
      <use xlink:href="#DejaVuSans-6e" transform="translate(1158.505859 0.015625)"/>
     </g>
    </g>
    <g id="line2d_43">
     <path d="M 159.01 69.250125 
L 169.01 69.250125 
L 179.01 69.250125 
" style="fill: none; stroke-dasharray: 5.55,2.4; stroke-dashoffset: 0; stroke: #ffa500; stroke-width: 1.5"/>
    </g>
    <g id="text_22">
     <!-- $u_{\mathrm{imag}}(x,0)$ before Newton -->
     <g transform="translate(187.01 72.750125) scale(0.1 -0.1)">
      <use xlink:href="#DejaVuSans-Oblique-75" transform="translate(0 0.015625)"/>
      <use xlink:href="#DejaVuSans-69" transform="translate(63.378906 -16.390625) scale(0.7)"/>
      <use xlink:href="#DejaVuSans-6d" transform="translate(82.827148 -16.390625) scale(0.7)"/>
      <use xlink:href="#DejaVuSans-61" transform="translate(151.015625 -16.390625) scale(0.7)"/>
      <use xlink:href="#DejaVuSans-67" transform="translate(193.911133 -16.390625) scale(0.7)"/>
      <use xlink:href="#DejaVuSans-28" transform="translate(241.079102 0.015625)"/>
      <use xlink:href="#DejaVuSans-Oblique-78" transform="translate(280.092773 0.015625)"/>
      <use xlink:href="#DejaVuSans-2c" transform="translate(339.272461 0.015625)"/>
      <use xlink:href="#DejaVuSans-30" transform="translate(390.541992 0.015625)"/>
      <use xlink:href="#DejaVuSans-29" transform="translate(454.165039 0.015625)"/>
      <use xlink:href="#DejaVuSans-20" transform="translate(493.178711 0.015625)"/>
      <use xlink:href="#DejaVuSans-62" transform="translate(524.96582 0.015625)"/>
      <use xlink:href="#DejaVuSans-65" transform="translate(588.442383 0.015625)"/>
      <use xlink:href="#DejaVuSans-66" transform="translate(649.96582 0.015625)"/>
      <use xlink:href="#DejaVuSans-6f" transform="translate(685.170898 0.015625)"/>
      <use xlink:href="#DejaVuSans-72" transform="translate(746.352539 0.015625)"/>
      <use xlink:href="#DejaVuSans-65" transform="translate(787.46582 0.015625)"/>
      <use xlink:href="#DejaVuSans-20" transform="translate(848.989258 0.015625)"/>
      <use xlink:href="#DejaVuSans-4e" transform="translate(880.776367 0.015625)"/>
      <use xlink:href="#DejaVuSans-65" transform="translate(955.581055 0.015625)"/>
      <use xlink:href="#DejaVuSans-77" transform="translate(1017.104492 0.015625)"/>
      <use xlink:href="#DejaVuSans-74" transform="translate(1098.891602 0.015625)"/>
      <use xlink:href="#DejaVuSans-6f" transform="translate(1138.100586 0.015625)"/>
      <use xlink:href="#DejaVuSans-6e" transform="translate(1199.282227 0.015625)"/>
     </g>
    </g>
    <g id="line2d_44">
     <path d="M 159.01 84.948563 
L 169.01 84.948563 
L 179.01 84.948563 
" style="fill: none; stroke: #0000ff; stroke-width: 1.5; stroke-linecap: square"/>
    </g>
    <g id="text_23">
     <!-- $u_{\mathrm{real}}(x,0)$ after Newton -->
     <g transform="translate(187.01 88.448563) scale(0.1 -0.1)">
      <use xlink:href="#DejaVuSans-Oblique-75" transform="translate(0 0.015625)"/>
      <use xlink:href="#DejaVuSans-72" transform="translate(63.378906 -16.390625) scale(0.7)"/>
      <use xlink:href="#DejaVuSans-65" transform="translate(92.158203 -16.390625) scale(0.7)"/>
      <use xlink:href="#DejaVuSans-61" transform="translate(135.224609 -16.390625) scale(0.7)"/>
      <use xlink:href="#DejaVuSans-6c" transform="translate(178.120117 -16.390625) scale(0.7)"/>
      <use xlink:href="#DejaVuSans-28" transform="translate(200.302734 0.015625)"/>
      <use xlink:href="#DejaVuSans-Oblique-78" transform="translate(239.316406 0.015625)"/>
      <use xlink:href="#DejaVuSans-2c" transform="translate(298.496094 0.015625)"/>
      <use xlink:href="#DejaVuSans-30" transform="translate(349.765625 0.015625)"/>
      <use xlink:href="#DejaVuSans-29" transform="translate(413.388672 0.015625)"/>
      <use xlink:href="#DejaVuSans-20" transform="translate(452.402344 0.015625)"/>
      <use xlink:href="#DejaVuSans-61" transform="translate(484.189453 0.015625)"/>
      <use xlink:href="#DejaVuSans-66" transform="translate(545.46875 0.015625)"/>
      <use xlink:href="#DejaVuSans-74" transform="translate(580.673828 0.015625)"/>
      <use xlink:href="#DejaVuSans-65" transform="translate(619.882812 0.015625)"/>
      <use xlink:href="#DejaVuSans-72" transform="translate(681.40625 0.015625)"/>
      <use xlink:href="#DejaVuSans-20" transform="translate(722.519531 0.015625)"/>
      <use xlink:href="#DejaVuSans-4e" transform="translate(754.306641 0.015625)"/>
      <use xlink:href="#DejaVuSans-65" transform="translate(829.111328 0.015625)"/>
      <use xlink:href="#DejaVuSans-77" transform="translate(890.634766 0.015625)"/>
      <use xlink:href="#DejaVuSans-74" transform="translate(972.421875 0.015625)"/>
      <use xlink:href="#DejaVuSans-6f" transform="translate(1011.630859 0.015625)"/>
      <use xlink:href="#DejaVuSans-6e" transform="translate(1072.8125 0.015625)"/>
     </g>
    </g>
    <g id="line2d_45">
     <path d="M 159.01 99.62825 
L 169.01 99.62825 
L 179.01 99.62825 
" style="fill: none; stroke-dasharray: 5.55,2.4; stroke-dashoffset: 0; stroke: #ff0000; stroke-width: 1.5"/>
    </g>
    <g id="text_24">
     <!-- $u_{\mathrm{imag}}(x,0)$ after Newton -->
     <g transform="translate(187.01 103.12825) scale(0.1 -0.1)">
      <use xlink:href="#DejaVuSans-Oblique-75" transform="translate(0 0.015625)"/>
      <use xlink:href="#DejaVuSans-69" transform="translate(63.378906 -16.390625) scale(0.7)"/>
      <use xlink:href="#DejaVuSans-6d" transform="translate(82.827148 -16.390625) scale(0.7)"/>
      <use xlink:href="#DejaVuSans-61" transform="translate(151.015625 -16.390625) scale(0.7)"/>
      <use xlink:href="#DejaVuSans-67" transform="translate(193.911133 -16.390625) scale(0.7)"/>
      <use xlink:href="#DejaVuSans-28" transform="translate(241.079102 0.015625)"/>
      <use xlink:href="#DejaVuSans-Oblique-78" transform="translate(280.092773 0.015625)"/>
      <use xlink:href="#DejaVuSans-2c" transform="translate(339.272461 0.015625)"/>
      <use xlink:href="#DejaVuSans-30" transform="translate(390.541992 0.015625)"/>
      <use xlink:href="#DejaVuSans-29" transform="translate(454.165039 0.015625)"/>
      <use xlink:href="#DejaVuSans-20" transform="translate(493.178711 0.015625)"/>
      <use xlink:href="#DejaVuSans-61" transform="translate(524.96582 0.015625)"/>
      <use xlink:href="#DejaVuSans-66" transform="translate(586.245117 0.015625)"/>
      <use xlink:href="#DejaVuSans-74" transform="translate(621.450195 0.015625)"/>
      <use xlink:href="#DejaVuSans-65" transform="translate(660.65918 0.015625)"/>
      <use xlink:href="#DejaVuSans-72" transform="translate(722.182617 0.015625)"/>
      <use xlink:href="#DejaVuSans-20" transform="translate(763.295898 0.015625)"/>
      <use xlink:href="#DejaVuSans-4e" transform="translate(795.083008 0.015625)"/>
      <use xlink:href="#DejaVuSans-65" transform="translate(869.887695 0.015625)"/>
      <use xlink:href="#DejaVuSans-77" transform="translate(931.411133 0.015625)"/>
      <use xlink:href="#DejaVuSans-74" transform="translate(1013.198242 0.015625)"/>
      <use xlink:href="#DejaVuSans-6f" transform="translate(1052.407227 0.015625)"/>
      <use xlink:href="#DejaVuSans-6e" transform="translate(1113.588867 0.015625)"/>
     </g>
    </g>
    <g id="line2d_46">
     <path d="M 159.01 115.326688 
L 169.01 115.326688 
L 179.01 115.326688 
" style="fill: none; stroke-dasharray: 5.55,2.4; stroke-dashoffset: 0; stroke: #008000; stroke-width: 1.5"/>
    </g>
    <g id="text_25">
     <!-- Potential $V(x)$ -->
     <g transform="translate(187.01 118.826688) scale(0.1 -0.1)">
      <defs>
       <path id="DejaVuSans-50" d="M 1259 4147 
L 1259 2394 
L 2053 2394 
Q 2494 2394 2734 2622 
Q 2975 2850 2975 3272 
Q 2975 3691 2734 3919 
Q 2494 4147 2053 4147 
L 1259 4147 
z
M 628 4666 
L 2053 4666 
Q 2838 4666 3239 4311 
Q 3641 3956 3641 3272 
Q 3641 2581 3239 2228 
Q 2838 1875 2053 1875 
L 1259 1875 
L 1259 0 
L 628 0 
L 628 4666 
z
" transform="scale(0.015625)"/>
      </defs>
      <use xlink:href="#DejaVuSans-50" transform="translate(0 0.015625)"/>
      <use xlink:href="#DejaVuSans-6f" transform="translate(60.302734 0.015625)"/>
      <use xlink:href="#DejaVuSans-74" transform="translate(121.484375 0.015625)"/>
      <use xlink:href="#DejaVuSans-65" transform="translate(160.693359 0.015625)"/>
      <use xlink:href="#DejaVuSans-6e" transform="translate(222.216797 0.015625)"/>
      <use xlink:href="#DejaVuSans-74" transform="translate(285.595703 0.015625)"/>
      <use xlink:href="#DejaVuSans-69" transform="translate(324.804688 0.015625)"/>
      <use xlink:href="#DejaVuSans-61" transform="translate(352.587891 0.015625)"/>
      <use xlink:href="#DejaVuSans-6c" transform="translate(413.867188 0.015625)"/>
      <use xlink:href="#DejaVuSans-20" transform="translate(441.650391 0.015625)"/>
      <use xlink:href="#DejaVuSans-Oblique-56" transform="translate(473.4375 0.015625)"/>
      <use xlink:href="#DejaVuSans-28" transform="translate(541.845703 0.015625)"/>
      <use xlink:href="#DejaVuSans-Oblique-78" transform="translate(580.859375 0.015625)"/>
      <use xlink:href="#DejaVuSans-29" transform="translate(640.039062 0.015625)"/>
     </g>
    </g>
   </g>
  </g>
 </g>
 <defs>
  <clipPath id="pc77b1cafe8">
   <rect x="57.6" y="41.472" width="357.12" height="266.112"/>
  </clipPath>
 </defs>
</svg>
